<svg id="e3jdMD9fety1" xmlns="http://www.w3.org/2000/svg" xmlns:xlink="http://www.w3.org/1999/xlink" viewBox="0 0 1920 519.4" shape-rendering="geometricPrecision" text-rendering="geometricPrecision"><path d="M0,393c0,0,52.1-3.2,68.4-9.6s48.6-32.6,54.9-37.7c6.4-5.1,20.8-22.4,20.8-22.4s-11.3-20.5-18.3-27.2c-7-6.6-20.2-24-23.1-35.2s4.1-28.9,2.5-33.2-2.1-16-2.1-16s4.3,10.3,9.3,14.1c5.1,3.8,19.1,10,25.4,27.3s1.6,42.8,4.6,43.5s5.5-21.8,10.7-37.6s8.9-30.8,2.7-46.2c-6.2-15.3-31-28-35.7-55.5s4-59.3,4-59.3s5.2,23.9,13.9,37.8s27.7,36.4,29.9,40.9.6-5.5-2.4-11.2-14.9-32.6-19-43.8-3.2-29.9-3.2-29.9s5.5,26.4,13.3,41.4c7.7,15,24,43.6,26.7,69.2s-4.6,49-11.7,62.9-8.9,19.4-8.7,30.8s2.8,20.2,2.8,20.2l14.1,3.6c0,0-2.7-14.5,1.7-37.3s17.9-52.6,17.9-66.5-1.4-34.6-7.6-52.8-17.5-47.3-19.6-74s5.7-52.2,7.9-62.4c2.2-10.3,8.4-27.2,8.4-27.2s.5,28.6,12.5,60.2s26.1,63.4,30.5,90.7s4.4,53.3-7.9,80.5-19,39.4-20.9,52.6c-1.9,13.3-3.2,35.6-2.7,40.1.5,4.6,7.3,1.6,7.3,1.6s-2.7-12.6-1.4-19.4c1.3-6.7,6.1-4,6.1-2s15.8-24.7,18.4-41.4s10.5-33.3,14.7-65.7c4.1-32.4,12.7-49.2,19.1-63.7s15.8-23.7,20.6-27.8s18.5-8.6,18.5-8.6-17.6,22.5-20.9,37.2-8.2,34.4-6.8,63c1.3,28.6-5.7,46.4-13.8,59.8-8.1,13.3-22.1,29.6-28.3,36.3s-14.1,18.4-15.6,25.9-2,8.9.2,9.6s8.1-11.3,20.3-22.9s29.9-22.1,36.6-36.1s10.3-37.9,14.1-51.9s9.6-24.6,12.8-29.5s13-14.2,13-14.2-6.3,26.8-5.7,45s1.1,32.3-2.4,42.2-7.6,22.8-7.6,22.8s12-16.9,13.8-28.2c1.8-11.2,9-42.1,11.3-50c2.4-8,8.5-18.3,10.7-21.2c2.1-2.9,10.4-7.4,10.1-7.3s-6.7,22-10,39.1c-3.3,17.2-6.5,28.6-12.7,43.9s-10.8,29-20.7,39.6c-10,10.5-17.3,16.9-22.5,19.5-5.3,2.6-11.1,5.2-10.7,8.1s15.4,6.3,27-5.4c11.7-11.7,25.1-41.3,30.5-51.7s15-17.6,24.7-22.3s18.3-2,20.3-.3s7.4,5.8,6.2,7.4-11-3.5-18.1,1.6c-7.1,5-14.7,12.7-20,30.8-5.3,18.2-5.8,28.5-8.5,33.9s-10.3,12.4-7.1,16.6c3.3,4.1,12.7-2,18.8-10.1c6.2-8.1,17.7-20.3,22.9-24.1s13.6-7.6,15.9-3.7c2.4,3.9-9.3,9.1-13.5,21.3-4.1,12.2-14.5,23.6-14.5,23.6s20.9,4,37.1-.6s22.2-11.3,32.4-11.2s12.4,4.6,22.2,4.8s14.5-.2,19.3,1.1s11.6,3,19.6,2.8c8.1-.2,12,1.6,13.9,1.7s6.8-2.7,10-2.9s6.3,2.2,14.9,2.1s25.5.3,32.2.3s17.5-2.8,21.4-4.1s13.3-1.1,16.7-2.4c3.4-1.2,15.3-4.8,18.8-5.9c3.6-1.1,14.1-4.3,18.2-7.4c4-3.1,10.9-8.9,17-9.2s20.1,5.7,31.5,6.1c11.4.3,20.9-3.3,32.6-7.1c11.8-3.8,23.2-9.4,26.5-11.7c3.3-2.2,9-7,12.7-8s32.4,3.7,51.8,2.1s67.6,1.6,69.3,1s2.6-3.6,8.6-3.7s19.9-.1,24.1-1.5c4.3-1.3,11.2-5.7,14.4-6.4c3.1-.7,19.4-5.7,21.9-7c2.5-1.2,17.8-9.2,21.9-9.9c4-.7,16.8-7,19.1-7.7s11.1-5.8,13.7-7.3s6.6-5,10.8-4.9s7.6,2.4,10.7,3.7c3,1.3,13.5,2.1,19.7,4.8c6.3,2.7,23.9,4.8,28.8,6.2s28.4,5.9,34.2,9.9c5.8,3.9,29.2,11.6,36.9,17c7.7,5.5,24.6,15,30.4,19.3s14.9,7.3,19.2,9.4s27.5,12.2,32.4,16.2s43.3,27.5,49.5,31.7c6.2,4.3,37.7,23.8,54.8,27.9c17.2,4.1,40,19,43.9,20.2c3.8,1.2,30.8,9.8,40.6,13.7s19.5,7.4,25.3,8s16.2.6,18.8,1.5s39,8.6,48,10c9,1.3,43.1,5,55.7,4.8c12.7-.2,34.7-1.7,34.7-1.7s-2.7-9.1-8.4-14-17.7-5.5-23.2-5.8-13.8-4.3-19.6-10.3c-5.8-6.1-16.2-26.5-16-26s11.8,10.4,21.6,13.5c9.9,3,23.6,5,25.5,6.1s-17.2-9.3-24.2-13.6c-7.1-4.3-14.1-11.3-13.8-12.4s17.7,11.2,24,13.7s23.3,11.7,29,17.5s10,9.2,12.3,15.5c2.4,6.3,4.1,13.8,4.1,13.8l8-1.5c0,0-7.1-22.2-13.2-28.7-6.2-6.5-18.3-18.6-34.1-27.8s-23.3-19.9-29.3-29c-5.9-9.2-8.2-15.7-10.8-20.1s-4.8-12.6-4.8-12.6s10,11.2,24.6,20.6s36.3,21.6,42.4,26.8s20.4,15,26,31.2s7.1,22.2,8,26.6s2.5,11.3,2.5,11.3l11.4-2c0,0-3.5-17.6-10-26.4-6.5-8.7-15.5-30.4-18.8-38.4-3.4-8-5.7-18.8-5.7-31s6.3-15.7,6.3-15.7-1,12.1,2.5,21.1s10.1,19.9,15.4,26.5s11.7,15,15.4,26.2s4.6,19.1,4.5,24.5-.2,11.1-.2,11.1s8.2-.1,9-1.6s3.7-8.5,1.7-16.3c-2-7.7-7.1-22.7-11.4-31-4.4-8.3-4.3-14-4.8-18.1-.6-4,.2-10.4.2-10.4s5.4,8.7,10.7,15.4c5.3,6.6,19.5,25.5,22.4,35.7s3,11.3,2.8,14.5-.2,5.5-.2,5.5s13-2.2,20.5-6.8s19.5-6.7,19.5-6.7-25-10.8-32.2-18.2-21.2-20.1-28-34.7-18.3-42.5-24.2-55.5-13.7-27.3-11.9-28.6s12.8,7.1,16.6,14.4s18.2,36.5,21.4,46.4c3.3,10,11.6,27,16.9,33-3.6-13.1-13.3-38.3-14.8-46.7-1.3-7.6-3.4-27.6-5.8-35.3-2.5-7.7-6.7-21.2-6.7-21.2s16.6,12.9,26,29.4s16.3,36.5,21.3,48.8s17.6,26.9,32.2,35.2s22.1,14.4,23.3,16c1.2,1.7,15.9,1.3,13.1-1.8s-10.9-14.6-19.9-21.8-29-24-36.3-38.5-14.7-26.7-17.6-47.3-2.7-36.2-9.8-51.8-13.5-25.1-20.3-32.1-10.8-11.6-9.3-12.9s18.3,1.7,31.5,16.8s23.3,29.3,29.4,45.2s14,40.9,18.2,52.9c4.1,12,12.8,40,20.9,50.1s14.6,22,17.6,26.2c3,4.3,5.7,9.9,7.3,9.5s8.1-.3,7-2.5c-1.1-2.1-4.9-26.4-14.6-41.4-9.6-15-28.7-45-34.3-63.6s-7.4-51.8-4.6-68.6s16.9-64.2,18.3-81.1c1.3-16.9,5-32.1,3.7-39.4s-1.1-14.6.3-15.1s8.9,15.4,15.1,31.5c6.3,16.2,11.6,36.9,12.8,59.1s-11,56.8-10.4,70.5c.6,13.8-5.8,28,.7,50.7s18.3,46.5,22.2,55.4s8.5,19.9,9.4,25.8.6,10.2.6,10.2s15.5-6.6,15.7-7.7.1-16.4-4.9-23.7-21.4-30.7-26.4-46.8-3.7-42.8-.2-58.4s15-40.5,16.2-49.8c1.1-9.3,5.5-30.1,5.4-29.7s3.4,11.3,1.1,23.6c-2.2,12.2-5,23.8-8,32.3-2.9,8.5-6.8,21.6-6.6,25.3c4-7.4,13.5-24,19.7-33.5c5.4-8.3,11.9-27.4,12.3-35.3.4-8-1.8-12.8,0-13s6.6,10,9.3,19.5c2,7.2,5.2,26.9,4.7,38.7-.4,11.8-1.2,14.7-7.9,27c0,0-7.5,11.6-15.3,22.5-7.7,11-7.2,22.5-4.9,33.1s10.4,26.8,15,36.5s6.4,21.2,7.5,21.3s5.4.2,3.8-3c-1.6-3.3-8-18.6-6.2-31.3s10-25.5,15-31.6c5-6.2,12.2-8.5,13.1-12.4s2.7-9,3.4-8.7-.2,10.7,1,16c1.2,5.4,11.1,22.7,7.3,36.1-3.8,13.5-14.2,25.7-14.2,25.7s19.2-4.1,27.8-9c8.6-4.8,24-5.6,30.4-7.7s9.3-3.3,9.3-3.3v175.5h-1918.5L0,392.6Z" fill="#243b4e"/><ellipse id="e3jdMD9fety3" rx="20.772593" ry="20.772593" transform="matrix(1.272727 0 0 1.272727 560.88031 285.73784)" opacity="0" fill="#fff" stroke-width="0"/><ellipse id="e3jdMD9fety4" rx="20.772593" ry="20.772593" transform="matrix(1.272727 0 0 1.272727 476.845731 285.73784)" opacity="0" fill="#fff" stroke-width="0"/><ellipse id="e3jdMD9fety5" rx="11.696958" ry="11.696958" transform="translate(560.88031 285.73784)" opacity="0" stroke-width="0"/><ellipse id="e3jdMD9fety6" rx="11.696958" ry="11.696958" transform="translate(476.845731 285.73784)" opacity="0" stroke-width="0"/>

</svg>
