<svg id="equHfRJtTMl1" xmlns="http://www.w3.org/2000/svg" xmlns:xlink="http://www.w3.org/1999/xlink" viewBox="0 0 1920 272.7" shape-rendering="geometricPrecision" text-rendering="geometricPrecision"><path id="equHfRJtTMl2" d="M217.4,93.7c0,0-15.1-54.7-10.1-58.7c6.4-5.2,53.8,23.4,53.8,23.4s50.2-59.7,58-58.4s31.1,83.5,31.1,83.5s49.6-2.8,51,3.5-58.7,52.1-58.7,52.1-56.6-18.5-69.2-22.4-55.9-23.1-55.9-23.1Z" transform="matrix(.999885 0.015171-.015171 0.999885-7.90762-3.132718)" fill="#fff"/><path d="M0,156.4l15.8-7.9c0,0,63.2-12.4,68.2-13.5c5.1-1.1,46.8-27.1,53-33.3s28.8-25.4,32.1-25.4s94.7,36.1,115.6,44.6s97.6,29.9,109.4,29.3s28.2-9,32.7-10.2c4.5-1.1,51.3,15.8,115.6-3.4s91.9-54.1,96.4-55.8s23.1,11.3,44,7.9s58.6-27.6,61.5-27.6s58.6,15.8,81.2,26.5s62,23.1,79.5,20.9c17.5-2.3,61.5-18,69.4-23.7c7.9-5.6,14.7-14.1,18-14.1s27.1,13,41.2,19.2s61.5,15.2,73.9,26.5s32.1,25.4,38.3,27.1s36.7,5.6,55.3,11.8s46.8,12.3,52.4,14.1s42.3-11.8,52.4-11.8s67.7,12.4,74.4,9.6s139.9-43.4,179.9-38.3s88.5,36.6,117.3,39.5c0,0,46.3,0,56.9,3s34.1,12.7,40.8,12.4c6.6-.3,25.4-11.5,31.4-16s14.5-17.8,18.1-19.9s21.5,1.2,26.9-.9s10.3-10,15.4-12.1s17.5,7.3,25.7,3.9c8.2-3.3,28.4-19.9,28.4-19.9v154L0,272.9v-116.3Z" fill="#243b4e"/>

</svg>
