<svg id="ebhr2Kl0Uop1" xmlns="http://www.w3.org/2000/svg" xmlns:xlink="http://www.w3.org/1999/xlink" viewBox="0 0 1920 384.1" shape-rendering="geometricPrecision" text-rendering="geometricPrecision"><path d="M1.8,274.7c.5.5,14,8.7,20.9,10.5s16.5,2.3,19.1,3.5c2.7,1.2,13.3,7.1,20,9.7c6.7,2.7,15.8,1.1,19.8,3.5c4.1,2.5,19.8,12.4,26.4,15.6s18.4,6.2,29.8,7.8c11.3,1.6,86.8-1.8,101-4.1s52.3-14.5,73.5-21.6c21.3-7.1,97-9.9,110.7-12c13.6-2.1,103-14.4,105.3-15.1s7.6-3.5,10.5-3.7c2.8-.2,94.8-13.5,111.1-18.6s67.2-18.2,77.5-24.8s29.6-13.6,35.1-18.3c5.5-4.6,43.6-26.8,57.8-33.1c14.2-6.4,37-13.3,46.6-16.1s36.9-8.2,42.5-9s19.3-7.1,22-6.9s16.5,11.3,27.3,16.5c10.8,5.1,64.9,29.1,73.2,31s40.2,8.7,53.9,9.6c13.6.9,67.9-6,81.3-9.4c13.5-3.4,36.2-12.8,38.6-11.9c2.5.9,34.7,12.6,57.8,9.6c23-3,55.5-25.3,59.5-25.2c4.1.2,18.4,3.9,25.5,4.4s39-3.9,54.8-8.9c0,0,20.4-7,23.8-9.7c3.4-2.8,18.2-8.3,22.6-10.6s9.8-5.6,11.6-6.3c1.8-.6,19.3-6.4,36.3-15.9s22.8-12.5,28-15.7s15.7-9.5,22.3-10.6c6.6-1.2,15.2,2.3,28-1.3s36-12.4,54.8-21.8c18.8-9.5,21.5-7.9,23.9-9.1c2.3-1.2,10.3-6.9,13-7.9s7.6.9,15.7-3.9s12.7-8.3,31.4-15.9s45.6-18,53-21.2c7.5-3.2,18.7-8.8,22-7.9s9.3,10.4,18.3,17.6c9.1,7.1,34.6,22.8,40.9,26.7s21.6,12.6,25.7,13.4c4,.9,20.7,2.4,30.8,4.6c10.1,2.1,16.5,3.1,16.5,3.1v318.8L0,384.1L1.8,274.7Z" fill="#222d3a"/><path id="ebhr2Kl0Uop3" d="M1536.2,337.1c0,0,29.7-20.9,52.5-14.6s37.8,20.2,37.8,20.2s14.2-11.3,28.4-10.7c0,0-7.9,8.7-7.9,15.7s7.9,16.4,7.9,16.4c-12.2,2.8-27.4-9.5-27.4-9.5s-22.6,14.6-49.4,10.3c-30.8-5-41.9-28-41.9-28Z" fill="#243b4e"/><path id="ebhr2Kl0Uop4" d="M1738.9,313.3c0,0,28.9-21.9,52-16.4s38.5,18.9,38.5,18.9s13.8-11.8,28-11.6c0,0-7.6,9-7.3,16c.2,7,8.5,16.2,8.5,16.2-12.1,3.2-27.7-8.5-27.7-8.5s-22.1,15.4-49,12c-31-3.9-42.8-26.5-42.8-26.5Z" fill="#243b4e"/><path id="ebhr2Kl0Uop5" d="M1427.1,262c0,0,22.8,19.4,43,17.8s34.5-9.9,34.5-9.9s10.8,10.3,22.9,11.7c0,0-5.7-7.5-4.9-12.7s8.6-11.1,8.6-11.1c-10.1-3.7-24.4,3.3-24.4,3.3s-17.6-13.8-40.9-14.2c-26.8-.4-38.9,15.2-38.9,15.2Z" fill="#243b4e"/><path id="ebhr2Kl0Uop6" d="M1650.6,198.1c0,0,30.7-17.2,53.6-10.8s37.6,19.2,37.6,19.2s14.7-9.4,29-8.3c0,0-8.2,7.4-8.5,13.5s7.4,14.8,7.4,14.8c-12.4,2-27.4-9.3-27.4-9.3s-23.4,12-50.3,7.2c-31-5.5-41.4-26.2-41.4-26.2Z" fill="#243b4e"/>

</svg>
