<svg id="ejszRcxb2FT1" xmlns="http://www.w3.org/2000/svg" xmlns:xlink="http://www.w3.org/1999/xlink" viewBox="0 0 590 580" shape-rendering="geometricPrecision" text-rendering="geometricPrecision"><path d="M102.5,257.5c0,0,12.7-39.6,22.1-58.1c9.5-18.5,27.4-39,29.1-39.4s4,3.6,6.4,9.8c2.5,6.2,3.8,14.2,5.7,14.2s4.7-20.7,5.9-29.1c.8-5.9,4.4-15.7,5.1-17.4.8-1.7,18-14.2,21-12.9s15.1,27.4,19.9,45c4.7,17.6,14.2,48.3,12.7,50.3s-12.3,1.3-17.2,3.6-6.6,4.2-10,4.5-4.2-2.1-4.2-6.2.7-19.8.4-30.7c-.5-18-4.6-37.8-9.7-37.4-4.2.3-7,16.4-6.6,31.9s2.3,23.3.9,25.6c0,0-1,1.9-6.6,2.8s-10.2.7-14.5,1.7-6.3-3.2-7.2-6.7-2.3-17-2.7-20.4c-.5-5.1-.6-8-3.8-7.9s-8.3,18.9-11.1,40c-2.8,21-1.9,38.9-3.9,40.4s-11.3,2.1-16.5,1.9-15.4.7-15.5-5.7Z" fill="#fff636"/><path d="M315.3,156.1c-.1-10.7.1-21.3-5-36.3-5.2-15-19.5-25.4-32.1-25.7-12.6-.4-27.8,10.8-35,20.7s-11.9,28.3-12.5,38.8c-.5,8.4.7,30.4,4.7,41.7s10.6,17.9,17.7,19.4s19.5,1.9,27.6.6c8.2-1.3,16.7-5.1,24.3-18c7.7-13,10.5-30.4,10.3-41.1Zm-20.9,4.7c-.4,7.2-1.9,19-7.5,24.4-5.5,5.4-9.3,6.6-14.3,6.5s-10.8-3.8-13.6-12.3c-2.8-8.4-1.8-12.1-1.9-17.4-.2-9.1,2.6-20.2,8.1-25.2s8.4-6.2,12.3-5.9c4,.2,8.2,1.7,11.9,7.9c3.7,6.3,5.3,14.8,4.9,22Z" fill="#fff636"/><path d="M345.2,98.1c0,0,17.4,3.5,20,7.2c2.7,3.9,1.9,6.1.2,9s-6.6,8.9-9,18.5c-3.4,13.7-4,20.3-3.4,30.1.5,7.9,3.5,21.5,5.3,27s4.7,8.8,2.9,10.7-14.2-.7-19.9-.5c-5.6.2-18.2,4.6-20.9,1.1s3.5-12.1,5-16.7c2.4-7.3,5.4-21.9,5.5-33.7s-.7-20.9-2-26.3c-2.2-8.7-7.9-23.6-8.2-26.3s1.8-3.8,6-3.5c4.2.4,14.5,2.4,18.4,3.4Z" fill="#fff636"/><path d="M377.4,202.7c-5.3-2.6-9-5-10.2-20.9-1.2-15.8,3.4-26.9,4.6-31.1s5.2-17.9,4.7-26.2c-.3-5.4-2.4-12.1-.1-14.8c2.3-2.6,19.2,7.3,24.3,10c5,2.6,17.6,11.3,19.4,13.7c3.3,4.6,5.6,10.2,7.5,21.3c1.4,8.6,4,24.4,6.3,30.9s3.7,12.7,6,12.9s4.3-17.8,3.4-24.4-5.5-18.4-5.5-20.8s3.2-4.2,5.6-2.4s10.5,12.5,15,18s8.7,10.7,8.5,13.6c-.1,2.9-4,10.6-6.1,17.4-1.7,5.4-3.6,15-5.2,20.8-1.3,4.8-1.2,8.3-4.8,9.6s-8.3,1.2-14.8-2.2-10-6.5-13.5-12-4.9-11.8-5.6-18.3-.2-9.4-2.2-19.2c-1.9-9.9-5.5-20.4-7.8-28.4s-6.1-19.5-10.5-19.7c-4.3-.2-2.4,16.6-2.6,27.4s.2,22.5,2,29.2s4.4,11.9,4.6,15.4-2,4.3-7.5,4.3-10.9-1.9-15.4-4.1Z" fill="#fff636"/><path d="M153.4,262.8c0-.2-.2-16.3-1.3-20.2-1.1-4-4.6-10.8-4.7-13.8s2.7-4.7,7.9-4.7s12.5,1.1,15.2,1.5s6.4,2.3,6.3,5.5c-.2,3.2-3.5,5-4.5,12s-1.4,14.3-1.5,21.2s1,13.4,2.1,18.1s3.9,10.2,3.9,12.8-2.4,4.5-6.1,4.3-8-1.9-11.1-2.2-9.3,1.5-12,1.2-3.3-2.9-2.9-4.5s5.8-8,7.2-12.2s1.9-15.3,1.7-19Z" fill="#fff636"/><path d="M181.6,275.4c0-8.2.8-16,7-23.8s13.5-11.4,16.9-11.7s9-.4,12.3,2.3s4.4,5.6,4.5,9.5-1.1,7.7-3.8,9.7c-2.6,2-5.5-2.9-12.3-.8s-6.8,6.9-7.6,11.1c-.6,3.6-.1,9.7,2.9,13.6s7.1,4.5,10.5,4.1s5.8-3.1,7.9-1.1c3.6,3.5,3.8,7.9,3.6,12s-1.3,9.5-4.6,11.3-4.5,1.6-7.6,1.6-6.7-.8-11.5-4.4-9.2-7.5-12-12.2c-3.5-6-6.2-13-6.2-21.1Z" fill="#fff636"/><path d="M231.3,270c-.2-4-.5-20.2-.9-23.7-.5-3.5-.6-4.5-1.8-6.4s-1.1-2.2-1.3-3.7.8-3.9,4.9-4.2c4.1-.4,8.7-.7,11.6-.9c2.8-.1,7.7.4,7.6,5.7c0,5.3-2.7,10.3-2.8,16s0,10.6,2,13.3s5,2.3,7.5.1s3.5-10.7,3.3-16.7c-.2-5.9-1.5-10.2-1.8-12.4-.6-3.7.2-5.6,3.4-6.1s9.3-1,14-.8s11.4,0,12.6,2c1.2,2.1,2.1,6.1,0,9.5s-6.5,9-8,13.9c-1.5,5-3,11.9-3,16.8s-.6,21.7,0,28.7s3.7,15,6,17.8s7.7,5.7,8.9,7.4s1.2,4.4-.2,5.7-8.4,1.5-10.5,1.3c-2.1-.1-8.5-.5-11.8-1.9-3.4-1.4-6.3-4.7-7.3-9.3-1-4.5-.6-23.3-1.2-26.3-.5-3-1.2-6.1-3-7.9s-5.5-3.2-8.5-2.8-4.7,3.9-4.4,8.9.8,14,2,17.5s5.4,12,7.5,15.7s2.3,5.7.5,7.6-7.4,1.5-10.2,1.5-12.2-1-15.3-2.3-4.6-3.2-5.3-6.5s1.9-7.7,3.2-10.2s3.4-6.4,3.7-9.3-1-35-1.1-37.9Z" fill="#fff636"/><path d="M354.2,294.5c-.3-8.7-2-12.2-5.2-16.8-3-4.3-8-5.4-7.8-7s2.6-2.7,4.3-4.7s4.4-5.6,4.2-14.4c-.3-8.8-2.3-15.9-7.1-20.7-4.2-4.3-9.6-6.4-14.8-5.8-11,1.2-19,6.2-21.4,8.5s-4,7.3-4.7,11.6c-.7,4.2-1.3,22-1.2,27.4c0,0-.9,20.4-.9,27.4c0,13.7,2.2,16.6,5.5,18.9c2.9,2,17,1.6,19.9,1.2s18.3-1.8,24.9-8.5s4.7-8.5,4.4-17.2Zm-35.1-51.2c1.2-1.6,5.4-2,7.8-2s4.7,1.7,5.9,3.7c1.2,1.9,1.7,10,0,14.4-1.8,4.4-6.7,9.5-10.3,9.6-3.6,0-4.6-3-4.9-12.1-.2-5.1.4-11.9,1.6-13.5Zm14,59.1c-2.4,1.8-5.9,3.6-8.3,3.6s-7.6-3.3-7.2-13.2c.2-5,.6-8.3,2.5-10.3s8.8-2.2,12.3-.2s6.2,6.9,6.1,10.7-3,7.7-5.3,9.4Z" fill="#fff636"/><path d="M399.7,279.1c-.7-6.2-1.4-22-3.7-37.7s-1.5-12.7,1.6-16.8s13.4-2.3,15.5,2.3c2.1,4.5,5.6,19.5,10.2,26.7c4.7,7.2,7.6,12,9,11.6c1.5-.3-2.1-20.1-1.3-22.8s4.7-3.6,10.8-1.9s13.5,4.4,14,8.2-3.9,30.9-4.3,41.3c-.4,8.4.3,19.4-3.1,22.8s-7.2,1.5-8.7,0-7.4-13.8-10.3-20.1-8.9-20.1-11-22.4-3.9-3.9-5.7-2.4-.3,15.3,1.3,20s4.7,14.3,8.9,19.2c4.3,4.9,7.4,8.7,7.6,13.8s-5.4,6.3-8.7,7.2c-3.2.9-15.6,1.2-18.3-1.9-2.7-3-3.7-13.3-3.4-19.5s0-23.7-.5-27.7Z" transform="translate(.000001 0)" fill="#fff636"/><path d="M109.6,358.4c0,0-9.5-22.8-11.7-41.8-2.2-19.1-1.9-24.5-.9-26.4s11.9-15.4,23.7-14.3c11.9,1.2,14.8,16.2,15.8,22.2s1.8,10.5,2.5,13.1s2.9,3.1,4.2,2.7s6.8-5.4,12.4-4.9c8.6.8,14.6,12.8,16.1,22.5s2.6,24.8,1.7,36.6c-.7,9.1-5.7,41.4-5.5,49.2s.3,15.1-.7,16.7c-.9,1.7-3.1,3.1-4.9,2.5s-9.6-9.8-13.5-13.8c-2.9-3-9.5-11.4-9.7-12.4-.3-1,4.1-2.1,6.9-5.7s7-15.6,8.1-23.5s2-25.3,1.5-32.8c-.4-7.5.7-14.2-5.9-14.7-6.5-.5-5.6,16.4-5.6,20.7s2.1,25.4-2.8,29.8-10.1,5.5-13.9-1.4-2.6-21.8-3-27.6-.5-12.8-1.9-20.1-1.3-14.3-5.7-13.3-5.3,11.1-4.4,19.1s1.7,15.1,1.2,16.8-2.6,2.8-4.3.9Z" fill="#fff636"/><path d="M173.1,445.9c0,0,6-19,7.4-29.2c1-7.1.9-41.3.8-51.1s-1.8-35.3-2.3-41.5c-.4-6.3,1.2-10.4,6-10.8s10.3,5,14.3,7.6c4,2.5,14.9,7.3,14.7,13.7-.2,6.3-4.8,21.5-6,29.2-1.5,10-5.1,30.2-6,41.5-.9,12.2.5,32.5,1,39.6.6,8.3,4.7,23.3,3.9,24.6s-15.4-7.9-20.3-11.2-11.8-8.7-13.6-12.2Z" fill="#fff636"/><path d="M210.5,419.4c0-10.5,2.5-36.4,9.1-50.3c7.2-15.2,18-23.1,24.4-24.4c6.3-1.2,15.8,0,18,7.6s2,26,.7,31.1c-1.3,5.3-3.7,5.7-6.4,5.7s-3.4-2.7-5.1-3.5c-3.2-1.7-8-.1-11.1,6s-4.9,13.6-4.9,22.6.6,15.2,5,24c4.1,8.3,9,10.8,12.3,10.7s7.8-3.1,10.8,0s4.5,11.2,4.6,17.8c0,6.6-1.8,19.5-4.3,21.2s-22.3-1.7-27.8-6.9-12.1-12.3-17.7-25.3c-5.7-13-7.4-23.6-7.5-36.3Z" fill="#fff636"/><path d="M276.9,420.5c-1-12.1-2-34.9-3.2-42s-5.2-25.5-5.4-30.1c-.1-4.6,4.4-6,13.7-5.3s16.8,3.4,16.6,10.4c-.1,7-2.2,12.9-3.2,23.6-1,10-1,25.9,6.2,25.9s12.7-5.8,12.3-19.1-2.4-39.2-2.6-44.5s8.7-8.4,17.5-7.9c8.7.5,12.3,2.9,12.1,9.6-.3,6.7-2.1,33.8-3.7,43.3-1.7,9.5-3.3,25.6-3.4,34-.1,8.5,3.2,36.6,6.1,46c2.8,9.4,5.9,19.1,6.1,22.4s-8.5,4-12.3,4.4-12.5,4.9-15.2-2.8-3.2-25.9-4.4-32.8c-1.3-6.9-2.7-27.4-8.7-27.4s-8.5,24.2-8.4,31.6s1.2,18.7,2.7,22.3s2.8,4.4,2.8,7.6-8.5,3.2-13.7,3-13.3,1.7-13.2-4.1c0-5.8,3-20.7,2.8-27.6-.4-14.3-.3-28.4-1.3-40.5Z" fill="#fff636"/><path d="M350.3,407.6c-.3-9.2,1.3-56.5,1.5-61s5-10.7,12.1-11.1c7-.5,21.1-.5,25.2.5c4.1.9,8.5,7.5,9.9,12.6c1.5,5.1,2.3,17.6-.3,19.1s-8.5-.1-12.5-.3-10.1-.2-12.9,5.1-5.4,11.9-4.9,17.6s5.2,6.4,9.6,5.9s14.7-6.6,20.2-6.1s7.3,7.5,7.8,14.6c.5,7.2-2.3,10.5-8.1,12.4s-16.5.3-23.8,6.6-5.8,10.3-5.6,18.3c.3,8,3.2,14.4,9.2,13.8c8.5-.8,11.9-7.7,17.7-14.6s13.8-6.9,14.9.1s1.2,18.4.6,20.5-7.3,5.7-11.9,7.6-19.6,8.6-25,10.8-14.5,8-19.1,3.2-4.6-75.5-4.6-75.5Z" fill="#fff636"/><path d="M414.6,392.8c-1.7-8.3-8.4-44.5-9.1-48.7s1.6-7.7,14.6-7.4s14.5,3.3,14.6,6.8c0,3.5-4.7,12.7-6,25.4s.4,31.5,2.4,39.5c2.1,8,2.7,9.9,5.8,9.7s6.3-7.4,6.3-13.9s3.4-8.8,6.6-8.9s6,9.2,6.8,13.9c.8,4.6.4,9.3,0,10.8s-6.9,8.1-13.9,15.1c-7.1,7-14.5,13.9-16.3,13.9s-4.8-23.2-6.3-29.7c-1.6-7.1-3.8-18.1-5.5-26.4Z" fill="#fff636"/><path d="M451.2,363.4c-2.8-9.8-8.5-30.8-7.4-36.5c1.1-5.8,9-10.4,17.2-12.6c8.2-2.1,12.4.3,13,10s-1.4,22.2-1.5,29.8-.6,16.9.9,17.1s6.7-13.7,8.5-16.9s6.1-4,8.1-2.7c1.9,1.4,1.4,4.2-.2,9.4-1.6,5.1-6.2,16-9.5,22.5s-7.3,17.3-11.4,17.8-6.7-7.7-8.2-11.1-7.4-19-9.6-26.8Z" fill="#fff636"/><path d="M475.3,297.2c-2.4-7.3-10.1-26.8-9.6-32s10.2-12.4,13.3-15.2s9.8-8.5,14-8.4s5.8,13.6,4.8,14.9-11.4,3.8-13.5,11.1-1.6,14.2,1.7,14.5s12.9-9.7,14.6-8.8s1.3,16.4.6,17.4-11.7,1-12.5,6.4s1,11.1,3.8,10.5s5.6-6.1,7.6-5.6-1.9,30.5-2.7,36.3c-.7,5.8-2.3,8.2-4.6,8.2s-15.2-41.9-17.6-49.2Z" fill="#fff636"/><path d="M273.2,157.1c0,0-1.8-10.7,1.9-10.7s3.1,9,3.1,9s5.3-6.7,7.4-4.1c2.2,2.6-3.5,8.2-3.5,8.2s6.8-.9,7.3,1.7-9.4,2.7-9.4,2.7s6.9,6,5,8.2c-2,2.2-7.9-4.8-7.9-4.8s0,9.1-2.5,9-1.1-9.9-1.1-9.9-6.9,6.9-9,5.5c-2.2-1.4,5.7-8,5.7-8s-9.7.4-9.8-2.6s10.4-1.5,10.4-1.5-7.9-6.1-6.2-8.6s8.8,5.9,8.8,5.9Z" fill="#bd6a6c"/><path d="M474.2,215.6c0,0-1.8-10.7,1.9-10.7s3.1,9,3.1,9s5.3-6.7,7.4-4.1-3.5,8.2-3.5,8.2s6.8-.9,7.3,1.7c.4,2.6-9.4,2.7-9.4,2.7s6.9,6,5,8.2c-2,2.2-7.9-4.8-7.9-4.8s0,9.1-2.5,9-1.1-9.9-1.1-9.9-6.9,6.9-9,5.5c-2.2-1.4,5.7-8,5.7-8s-9.7.4-9.8-2.6s10.4-1.5,10.4-1.5-7.9-6.1-6.2-8.6s8.8,5.9,8.8,5.9Z" fill="#bd6a6c"/><path d="M362.4,275.5c-.2-10.3,0-27-2-34.1s-4.2-14.4-4.3-19.5s12.6-3.1,16.9-2.9s16.2.8,15.7,9.6c-.5,8.9-3.8,12.9-5.1,22.8-1.3,10-1.7,17-1.4,25.2s1.5,19.6,4.7,25.4s3.9,9.4,3.6,12.2-4.9,6.6-15.2,8.2c-10.3,1.7-17.2,1.1-16.8-5.9s2.9-6.2,3.6-13.7c.6-7.4.3-27.4.3-27.4Z" fill="#fff636"/><g id="ejszRcxb2FT22"><line x1="299.4" y1="46.3" x2="299.4" y2="5.3" transform="translate(1.184159 1.350005)" fill="none" stroke="#fff636" stroke-width="5" stroke-linecap="round" stroke-linejoin="round"/><line x1="386.3" y1="71.4" x2="405.5" y2="41.9" transform="translate(11.799965-14.750001)" fill="none" stroke="#fff636" stroke-width="5" stroke-linecap="round" stroke-linejoin="round"/><line x1="475.8" y1="124.5" x2="517.9" y2="89.1" fill="none" stroke="#fff636" stroke-width="5" stroke-linecap="round" stroke-miterlimit="10"/><line x1="517.2" y1="202.6" x2="549.3" y2="193.8" fill="none" stroke="#fff636" stroke-width="5" stroke-linecap="round" stroke-linejoin="round"/><line x1="540.8" y1="290" x2="585.3" y2="289.3" fill="none" stroke="#fff636" stroke-width="5" stroke-linecap="round" stroke-linejoin="round"/><line x1="517.9" y1="383.9" x2="555.457982" y2="401.3" fill="none" stroke="#fff636" stroke-width="5" stroke-linecap="round" stroke-linejoin="round"/><line x1="467.5" y1="472.6" x2="501.8" y2="514.5" transform="translate(-8.702328-14.592813)" fill="none" stroke="#fff636" stroke-width="5" stroke-linecap="round" stroke-linejoin="round"/><line x1="387.6" y1="511.2" x2="398.1" y2="547.2" fill="none" stroke="#fff636" stroke-width="5" stroke-linecap="round" stroke-linejoin="round"/><line x1="307.1" y1="529.2" x2="307.1" y2="574.7" fill="none" stroke="#fff636" stroke-width="5" stroke-linecap="round" stroke-linejoin="round"/><line x1="214.1" y1="516.5" x2="202.5" y2="559" fill="none" stroke="#fff636" stroke-width="5" stroke-linecap="round" stroke-linejoin="round"/><line x1="137.6" y1="469.5" x2="105.5" y2="510.6" fill="none" stroke="#fff636" stroke-width="5" stroke-linecap="round" stroke-linejoin="round"/><line x1="78.7" y1="388.2" x2="38.7" y2="416.4" fill="none" stroke="#fff636" stroke-width="5" stroke-linecap="round" stroke-linejoin="round"/><line x1="50.5" y1="294" x2="4.7" y2="294" fill="none" stroke="#fff636" stroke-width="5" stroke-linecap="round" stroke-linejoin="round"/><line x1="81.3" y1="208.2" x2="43.3" y2="185.9" transform="translate(-22.600014-13.7784)" fill="none" stroke="#fff636" stroke-width="5" stroke-linecap="round" stroke-linejoin="round"/><line x1="135" y1="136.2" x2="96.2" y2="94.1" transform="translate(-10.100029-17.164328)" fill="none" stroke="#fff636" stroke-width="5" stroke-linecap="round" stroke-linejoin="round"/><line x1="214.1" y1="85.8" x2="202.5" y2="49.8" transform="translate(-14.944073-29.149986)" fill="none" stroke="#fff636" stroke-width="5" stroke-linecap="round" stroke-linejoin="round"/></g>

</svg>
