<?xml version="1.0" encoding="UTF-8"?>
<svg id="moon" xmlns="http://www.w3.org/2000/svg" viewBox="0 0 590 580">
  <path d="M102.5,257.5s12.7-39.6,22.1-58.1c9.5-18.5,27.4-39,29.1-39.4,1.7-.4,4,3.6,6.4,9.8,2.5,6.2,3.8,14.2,5.7,14.2s4.7-20.7,5.9-29.1c.8-5.9,4.4-15.7,5.1-17.4,.8-1.7,18-14.2,21-12.9s15.1,27.4,19.9,45c4.7,17.6,14.2,48.3,12.7,50.3s-12.3,1.3-17.2,3.6c-4.9,2.3-6.6,4.2-10,4.5s-4.2-2.1-4.2-6.2,.7-19.8,.4-30.7c-.5-18-4.6-37.8-9.7-37.4-4.2,.3-7,16.4-6.6,31.9s2.3,23.3,.9,25.6c0,0-1,1.9-6.6,2.8-5.6,.9-10.2,.7-14.5,1.7-4.3,1-6.3-3.2-7.2-6.7s-2.3-17-2.7-20.4c-.5-5.1-.6-8-3.8-7.9s-8.3,18.9-11.1,40c-2.8,21-1.9,38.9-3.9,40.4s-11.3,2.1-16.5,1.9-15.4,.7-15.5-5.7Z" style="fill: #f6eac4;"/>
  <path d="M315.3,156.1c-.1-10.7,.1-21.3-5-36.3-5.2-15-19.5-25.4-32.1-25.7-12.6-.4-27.8,10.8-35,20.7s-11.9,28.3-12.5,38.8c-.5,8.4,.7,30.4,4.7,41.7,4,11.3,10.6,17.9,17.7,19.4s19.5,1.9,27.6,.6c8.2-1.3,16.7-5.1,24.3-18,7.7-13,10.5-30.4,10.3-41.1Zm-20.9,4.7c-.4,7.2-1.9,19-7.5,24.4-5.5,5.4-9.3,6.6-14.3,6.5-5-.1-10.8-3.8-13.6-12.3-2.8-8.4-1.8-12.1-1.9-17.4-.2-9.1,2.6-20.2,8.1-25.2,5.5-5,8.4-6.2,12.3-5.9,4,.2,8.2,1.7,11.9,7.9,3.7,6.3,5.3,14.8,4.9,22Z" style="fill: #f6eac4;"/>
  <path d="M345.2,98.1s17.4,3.5,20,7.2c2.7,3.9,1.9,6.1,.2,9-1.7,2.9-6.6,8.9-9,18.5-3.4,13.7-4,20.3-3.4,30.1,.5,7.9,3.5,21.5,5.3,27s4.7,8.8,2.9,10.7-14.2-.7-19.9-.5c-5.6,.2-18.2,4.6-20.9,1.1s3.5-12.1,5-16.7c2.4-7.3,5.4-21.9,5.5-33.7,.1-11.8-.7-20.9-2-26.3-2.2-8.7-7.9-23.6-8.2-26.3s1.8-3.8,6-3.5c4.2,.4,14.5,2.4,18.4,3.4Z" style="fill: #f6eac4;"/>
  <path d="M377.4,202.7c-5.3-2.6-9-5-10.2-20.9-1.2-15.8,3.4-26.9,4.6-31.1s5.2-17.9,4.7-26.2c-.3-5.4-2.4-12.1-.1-14.8,2.3-2.6,19.2,7.3,24.3,10,5,2.6,17.6,11.3,19.4,13.7,3.3,4.6,5.6,10.2,7.5,21.3,1.4,8.6,4,24.4,6.3,30.9,2.3,6.5,3.7,12.7,6,12.9s4.3-17.8,3.4-24.4-5.5-18.4-5.5-20.8,3.2-4.2,5.6-2.4,10.5,12.5,15,18,8.7,10.7,8.5,13.6c-.1,2.9-4,10.6-6.1,17.4-1.7,5.4-3.6,15-5.2,20.8-1.3,4.8-1.2,8.3-4.8,9.6s-8.3,1.2-14.8-2.2c-6.5-3.4-10-6.5-13.5-12-3.5-5.5-4.9-11.8-5.6-18.3s-.2-9.4-2.2-19.2c-1.9-9.9-5.5-20.4-7.8-28.4s-6.1-19.5-10.5-19.7c-4.3-.2-2.4,16.6-2.6,27.4-.2,10.8,.2,22.5,2,29.2,1.8,6.7,4.4,11.9,4.6,15.4s-2,4.3-7.5,4.3-10.9-1.9-15.4-4.1Z" style="fill: #f6eac4;"/>
  <path d="M153.4,262.8c0-.2-.2-16.3-1.3-20.2-1.1-4-4.6-10.8-4.7-13.8s2.7-4.7,7.9-4.7c5.2,0,12.5,1.1,15.2,1.5,2.7,.4,6.4,2.3,6.3,5.5-.2,3.2-3.5,5-4.5,12s-1.4,14.3-1.5,21.2,1,13.4,2.1,18.1c1.1,4.7,3.9,10.2,3.9,12.8s-2.4,4.5-6.1,4.3-8-1.9-11.1-2.2-9.3,1.5-12,1.2-3.3-2.9-2.9-4.5c.4-1.6,5.8-8,7.2-12.2s1.9-15.3,1.7-19Z" style="fill: #f6eac4;"/>
  <path d="M181.6,275.4c0-8.2,.8-16,7-23.8,6.2-7.8,13.5-11.4,16.9-11.7s9-.4,12.3,2.3,4.4,5.6,4.5,9.5-1.1,7.7-3.8,9.7c-2.6,2-5.5-2.9-12.3-.8s-6.8,6.9-7.6,11.1c-.6,3.6-.1,9.7,2.9,13.6s7.1,4.5,10.5,4.1,5.8-3.1,7.9-1.1c3.6,3.5,3.8,7.9,3.6,12s-1.3,9.5-4.6,11.3-4.5,1.6-7.6,1.6-6.7-.8-11.5-4.4c-4.8-3.6-9.2-7.5-12-12.2-3.5-6-6.2-13-6.2-21.1Z" style="fill: #f6eac4;"/>
  <path d="M231.3,270c-.2-4-.5-20.2-.9-23.7-.5-3.5-.6-4.5-1.8-6.4-1.2-1.9-1.1-2.2-1.3-3.7s.8-3.9,4.9-4.2c4.1-.4,8.7-.7,11.6-.9,2.8-.1,7.7,.4,7.6,5.7,0,5.3-2.7,10.3-2.8,16-.1,5.7,0,10.6,2,13.3s5,2.3,7.5,.1,3.5-10.7,3.3-16.7c-.2-5.9-1.5-10.2-1.8-12.4-.6-3.7,.2-5.6,3.4-6.1s9.3-1,14-.8,11.4,0,12.6,2c1.2,2.1,2.1,6.1,0,9.5-2.1,3.4-6.5,9-8,13.9-1.5,5-3,11.9-3,16.8s-.6,21.7,0,28.7,3.7,15,6,17.8,7.7,5.7,8.9,7.4,1.2,4.4-.2,5.7-8.4,1.5-10.5,1.3c-2.1-.1-8.5-.5-11.8-1.9-3.4-1.4-6.3-4.7-7.3-9.3-1-4.5-.6-23.3-1.2-26.3-.5-3-1.2-6.1-3-7.9-1.8-1.8-5.5-3.2-8.5-2.8s-4.7,3.9-4.4,8.9c.3,5,.8,14,2,17.5,1.2,3.5,5.4,12,7.5,15.7s2.3,5.7,.5,7.6-7.4,1.5-10.2,1.5-12.2-1-15.3-2.3-4.6-3.2-5.3-6.5,1.9-7.7,3.2-10.2c1.3-2.5,3.4-6.4,3.7-9.3,.3-2.9-1-35-1.1-37.9Z" style="fill: #f6eac4;"/>
  <path d="M354.2,294.5c-.3-8.7-2-12.2-5.2-16.8-3-4.3-8-5.4-7.8-7,.2-1.6,2.6-2.7,4.3-4.7s4.4-5.6,4.2-14.4c-.3-8.8-2.3-15.9-7.1-20.7-4.2-4.3-9.6-6.4-14.8-5.8-11,1.2-19,6.2-21.4,8.5-2.4,2.3-4,7.3-4.7,11.6-.7,4.2-1.3,22-1.2,27.4,0,0-.9,20.4-.9,27.4,0,13.7,2.2,16.6,5.5,18.9,2.9,2,17,1.6,19.9,1.2,2.9-.4,18.3-1.8,24.9-8.5s4.7-8.5,4.4-17.2Zm-35.1-51.2c1.2-1.6,5.4-2,7.8-2,2.4,0,4.7,1.7,5.9,3.7,1.2,1.9,1.7,10,0,14.4-1.8,4.4-6.7,9.5-10.3,9.6-3.6,0-4.6-3-4.9-12.1-.2-5.1,.4-11.9,1.6-13.5Zm14,59.1c-2.4,1.8-5.9,3.6-8.3,3.6-2.4,0-7.6-3.3-7.2-13.2,.2-5,.6-8.3,2.5-10.3,1.9-2,8.8-2.2,12.3-.2,3.5,2,6.2,6.9,6.1,10.7-.1,3.8-3,7.7-5.3,9.4Z" style="fill: #f6eac4;"/>
  <path d="M399.7,279.1c-.7-6.2-1.4-22-3.7-37.7s-1.5-12.7,1.6-16.8c3.1-4.1,13.4-2.3,15.5,2.3,2.1,4.5,5.6,19.5,10.2,26.7,4.7,7.2,7.6,12,9,11.6,1.5-.3-2.1-20.1-1.3-22.8,.8-2.7,4.7-3.6,10.8-1.9,6.1,1.7,13.5,4.4,14,8.2,.5,3.8-3.9,30.9-4.3,41.3-.4,8.4,.3,19.4-3.1,22.8-3.4,3.4-7.2,1.5-8.7,0s-7.4-13.8-10.3-20.1c-2.9-6.3-8.9-20.1-11-22.4-2.1-2.3-3.9-3.9-5.7-2.4s-.3,15.3,1.3,20c1.6,4.7,4.7,14.3,8.9,19.2,4.3,4.9,7.4,8.7,7.6,13.8s-5.4,6.3-8.7,7.2c-3.2,.9-15.6,1.2-18.3-1.9-2.7-3-3.7-13.3-3.4-19.5,.3-6.2,0-23.7-.5-27.7Z" style="fill: #f6eac4;"/>
  <path d="M109.6,358.4s-9.5-22.8-11.7-41.8c-2.2-19.1-1.9-24.5-.9-26.4s11.9-15.4,23.7-14.3c11.9,1.2,14.8,16.2,15.8,22.2s1.8,10.5,2.5,13.1,2.9,3.1,4.2,2.7c1.3-.4,6.8-5.4,12.4-4.9,8.6,.8,14.6,12.8,16.1,22.5,1.5,9.7,2.6,24.8,1.7,36.6-.7,9.1-5.7,41.4-5.5,49.2s.3,15.1-.7,16.7c-.9,1.7-3.1,3.1-4.9,2.5s-9.6-9.8-13.5-13.8c-2.9-3-9.5-11.4-9.7-12.4-.3-1,4.1-2.1,6.9-5.7s7-15.6,8.1-23.5c1.1-7.9,2-25.3,1.5-32.8-.4-7.5,.7-14.2-5.9-14.7-6.5-.5-5.6,16.4-5.6,20.7s2.1,25.4-2.8,29.8-10.1,5.5-13.9-1.4c-3.8-6.9-2.6-21.8-3-27.6-.4-5.8-.5-12.8-1.9-20.1s-1.3-14.3-5.7-13.3-5.3,11.1-4.4,19.1c.9,8,1.7,15.1,1.2,16.8s-2.6,2.8-4.3,.9Z" style="fill: #f6eac4;"/>
  <path d="M173.1,445.9s6-19,7.4-29.2c1-7.1,.9-41.3,.8-51.1-.1-9.8-1.8-35.3-2.3-41.5-.4-6.3,1.2-10.4,6-10.8,4.8-.4,10.3,5,14.3,7.6,4,2.5,14.9,7.3,14.7,13.7-.2,6.3-4.8,21.5-6,29.2-1.5,10-5.1,30.2-6,41.5-.9,12.2,.5,32.5,1,39.6,.6,8.3,4.7,23.3,3.9,24.6s-15.4-7.9-20.3-11.2c-4.9-3.3-11.8-8.7-13.6-12.2Z" style="fill: #f6eac4;"/>
  <path d="M210.5,419.4c0-10.5,2.5-36.4,9.1-50.3,7.2-15.2,18-23.1,24.4-24.4,6.3-1.2,15.8,0,18,7.6,2.2,7.6,2,26,.7,31.1-1.3,5.3-3.7,5.7-6.4,5.7s-3.4-2.7-5.1-3.5c-3.2-1.7-8-.1-11.1,6s-4.9,13.6-4.9,22.6,.6,15.2,5,24c4.1,8.3,9,10.8,12.3,10.7s7.8-3.1,10.8,0,4.5,11.2,4.6,17.8c0,6.6-1.8,19.5-4.3,21.2-2.5,1.7-22.3-1.7-27.8-6.9-5.5-5.2-12.1-12.3-17.7-25.3-5.7-13-7.4-23.6-7.5-36.3Z" style="fill: #f6eac4;"/>
  <path d="M276.9,420.5c-1-12.1-2-34.9-3.2-42-1.2-7.1-5.2-25.5-5.4-30.1-.1-4.6,4.4-6,13.7-5.3s16.8,3.4,16.6,10.4c-.1,7-2.2,12.9-3.2,23.6-1,10-1,25.9,6.2,25.9s12.7-5.8,12.3-19.1c-.4-13.3-2.4-39.2-2.6-44.5-.2-5.3,8.7-8.4,17.5-7.9,8.7,.5,12.3,2.9,12.1,9.6-.3,6.7-2.1,33.8-3.7,43.3-1.7,9.5-3.3,25.6-3.4,34-.1,8.5,3.2,36.6,6.1,46,2.8,9.4,5.9,19.1,6.1,22.4,.2,3.3-8.5,4-12.3,4.4s-12.5,4.9-15.2-2.8-3.2-25.9-4.4-32.8c-1.3-6.9-2.7-27.4-8.7-27.4s-8.5,24.2-8.4,31.6,1.2,18.7,2.7,22.3c1.5,3.6,2.8,4.4,2.8,7.6s-8.5,3.2-13.7,3-13.3,1.7-13.2-4.1c0-5.8,3-20.7,2.8-27.6-.4-14.3-.3-28.4-1.3-40.5Z" style="fill: #f6eac4;"/>
  <path d="M350.3,407.6c-.3-9.2,1.3-56.5,1.5-61s5-10.7,12.1-11.1c7-.5,21.1-.5,25.2,.5,4.1,.9,8.5,7.5,9.9,12.6,1.5,5.1,2.3,17.6-.3,19.1-2.6,1.5-8.5-.1-12.5-.3s-10.1-.2-12.9,5.1c-2.8,5.3-5.4,11.9-4.9,17.6s5.2,6.4,9.6,5.9c4.4-.5,14.7-6.6,20.2-6.1,5.5,.5,7.3,7.5,7.8,14.6,.5,7.2-2.3,10.5-8.1,12.4s-16.5,.3-23.8,6.6-5.8,10.3-5.6,18.3c.3,8,3.2,14.4,9.2,13.8,8.5-.8,11.9-7.7,17.7-14.6s13.8-6.9,14.9,.1c1.1,7,1.2,18.4,.6,20.5s-7.3,5.7-11.9,7.6c-4.6,1.9-19.6,8.6-25,10.8-5.4,2.2-14.5,8-19.1,3.2-4.6-4.8-4.6-75.5-4.6-75.5Z" style="fill: #f6eac4;"/>
  <path d="M414.6,392.8c-1.7-8.3-8.4-44.5-9.1-48.7s1.6-7.7,14.6-7.4c13,.3,14.5,3.3,14.6,6.8,0,3.5-4.7,12.7-6,25.4s.4,31.5,2.4,39.5c2.1,8,2.7,9.9,5.8,9.7s6.3-7.4,6.3-13.9c0-6.5,3.4-8.8,6.6-8.9s6,9.2,6.8,13.9c.8,4.6,.4,9.3,0,10.8-.4,1.5-6.9,8.1-13.9,15.1-7.1,7-14.5,13.9-16.3,13.9s-4.8-23.2-6.3-29.7c-1.6-7.1-3.8-18.1-5.5-26.4Z" style="fill: #f6eac4;"/>
  <path d="M451.2,363.4c-2.8-9.8-8.5-30.8-7.4-36.5,1.1-5.8,9-10.4,17.2-12.6,8.2-2.1,12.4,.3,13,10s-1.4,22.2-1.5,29.8c-.1,7.6-.6,16.9,.9,17.1s6.7-13.7,8.5-16.9c1.8-3.2,6.1-4,8.1-2.7,1.9,1.4,1.4,4.2-.2,9.4-1.6,5.1-6.2,16-9.5,22.5s-7.3,17.3-11.4,17.8-6.7-7.7-8.2-11.1c-1.5-3.4-7.4-19-9.6-26.8Z" style="fill: #f6eac4;"/>
  <path d="M475.3,297.2c-2.4-7.3-10.1-26.8-9.6-32,.5-5.2,10.2-12.4,13.3-15.2,3.1-2.8,9.8-8.5,14-8.4s5.8,13.6,4.8,14.9-11.4,3.8-13.5,11.1c-2.1,7.3-1.6,14.2,1.7,14.5,3.3,.3,12.9-9.7,14.6-8.8,1.7,.9,1.3,16.4,.6,17.4s-11.7,1-12.5,6.4,1,11.1,3.8,10.5,5.6-6.1,7.6-5.6-1.9,30.5-2.7,36.3c-.7,5.8-2.3,8.2-4.6,8.2-2.3,0-15.2-41.9-17.6-49.2Z" style="fill: #f6eac4;"/>
  <path d="M273.2,157.1s-1.8-10.7,1.9-10.7c3.7,0,3.1,9,3.1,9,0,0,5.3-6.7,7.4-4.1,2.2,2.6-3.5,8.2-3.5,8.2,0,0,6.8-.9,7.3,1.7s-9.4,2.7-9.4,2.7c0,0,6.9,6,5,8.2-2,2.2-7.9-4.8-7.9-4.8,0,0,0,9.1-2.5,9s-1.1-9.9-1.1-9.9c0,0-6.9,6.9-9,5.5-2.2-1.4,5.7-8,5.7-8,0,0-9.7,.4-9.8-2.6s10.4-1.5,10.4-1.5c0,0-7.9-6.1-6.2-8.6,1.7-2.5,8.8,5.9,8.8,5.9Z" style="fill: #bd6a6c;"/>
  <path d="M474.2,215.6s-1.8-10.7,1.9-10.7,3.1,9,3.1,9c0,0,5.3-6.7,7.4-4.1s-3.5,8.2-3.5,8.2c0,0,6.8-.9,7.3,1.7,.4,2.6-9.4,2.7-9.4,2.7,0,0,6.9,6,5,8.2-2,2.2-7.9-4.8-7.9-4.8,0,0,0,9.1-2.5,9s-1.1-9.9-1.1-9.9c0,0-6.9,6.9-9,5.5-2.2-1.4,5.7-8,5.7-8,0,0-9.7,.4-9.8-2.6s10.4-1.5,10.4-1.5c0,0-7.9-6.1-6.2-8.6s8.8,5.9,8.8,5.9Z" style="fill: #bd6a6c;"/>
  <path d="M362.4,275.5c-.2-10.3,0-27-2-34.1-2-7.1-4.2-14.4-4.3-19.5s12.6-3.1,16.9-2.9c4.3,.2,16.2,.8,15.7,9.6-.5,8.9-3.8,12.9-5.1,22.8-1.3,10-1.7,17-1.4,25.2s1.5,19.6,4.7,25.4,3.9,9.4,3.6,12.2c-.3,2.8-4.9,6.6-15.2,8.2-10.3,1.7-17.2,1.1-16.8-5.9s2.9-6.2,3.6-13.7c.6-7.4,.3-27.4,.3-27.4Z" style="fill: #f6eac4;"/>
</svg>