<svg id="eXEpIjhoPNA1" xmlns="http://www.w3.org/2000/svg" xmlns:xlink="http://www.w3.org/1999/xlink" viewBox="0 0 1920 1750" shape-rendering="geometricPrecision" text-rendering="geometricPrecision"><circle id="eXEpIjhoPNA2" r="8.9" transform="translate(63 570.7)" fill="#fff"/><circle id="eXEpIjhoPNA3" r="7.3" transform="translate(280.4 506.6)" fill="#fff"/><circle id="eXEpIjhoPNA4" r="5.2" transform="translate(443.3 704.3)" fill="#fff"/><circle id="eXEpIjhoPNA5" r="8.4" transform="translate(105.5 295.8)" fill="#fff"/><circle id="eXEpIjhoPNA6" r="7.9" transform="translate(158.2 89.7)" fill="#fff"/><circle id="eXEpIjhoPNA7" r="7.7" transform="translate(451.8 211.9)" fill="#fff"/><circle id="eXEpIjhoPNA8" r="6.7" transform="translate(534.5 149.2)" fill="#fff"/><circle id="eXEpIjhoPNA9" r="8" transform="translate(519 40.9)" fill="#fff"/><circle id="eXEpIjhoPNA10" r="7.5" transform="translate(616.9 228.8)" fill="#fff"/><circle id="eXEpIjhoPNA11" r="6.4" transform="translate(544.8 378.6)" fill="#fff"/><circle id="eXEpIjhoPNA12" r="6.3" transform="translate(511.7 457.6)" fill="#fff"/><circle id="eXEpIjhoPNA13" r="6.8" transform="translate(678.9 40.2)" fill="#fff"/><circle id="eXEpIjhoPNA14" r="9.1" transform="translate(842.9 81.7)" fill="#fff"/><circle id="eXEpIjhoPNA15" r="5.5" transform="translate(927.5 40.9)" fill="#fff"/><circle id="eXEpIjhoPNA16" r="5.2" transform="translate(936.4 250.7)" fill="#fff"/><circle id="eXEpIjhoPNA17" r="5" transform="translate(1012.2 99.9)" fill="#fff"/><circle id="eXEpIjhoPNA18" r="7.8" transform="translate(1184.8 145.4)" fill="#fff"/><circle id="eXEpIjhoPNA19" r="6" transform="translate(1191.6 484.1)" fill="#fff"/><circle id="eXEpIjhoPNA20" r="6.7" transform="translate(1367.2 38.5)" fill="#fff"/><circle id="eXEpIjhoPNA21" r="5.7" transform="translate(1360.9 614.7)" fill="#fff"/><circle id="eXEpIjhoPNA22" r="7.2" transform="translate(1519.7 570.6)" fill="#fff"/><circle id="eXEpIjhoPNA23" r="6.8" transform="translate(1642 28.6)" fill="#fff"/><circle id="eXEpIjhoPNA24" r="7.6" transform="translate(1655.6 134.7)" fill="#fff"/><circle id="eXEpIjhoPNA25" r="6.3" transform="translate(1684.9 97.3)" fill="#fff"/><circle id="eXEpIjhoPNA26" r="9.5" transform="translate(1704.3 142)" fill="#fff"/><circle id="eXEpIjhoPNA27" r="5.5" transform="translate(1804.2 36.5)" fill="#fff"/><circle id="eXEpIjhoPNA28" r="7.2" transform="translate(1845.6 122.1)" fill="#fff"/><circle id="eXEpIjhoPNA29" r="5.9" transform="translate(1749.7 234.4)" fill="#fff"/><circle id="eXEpIjhoPNA30" r="6.3" transform="translate(1730.2 351.8)" fill="#fff"/><circle id="eXEpIjhoPNA31" r="7.4" transform="translate(1854.1 397.2)" fill="#fff"/><circle id="eXEpIjhoPNA32" r="7.8" transform="translate(1828.6 426.1)" fill="#fff"/><circle id="eXEpIjhoPNA33" r="6.5" transform="translate(1672.9 530.4)" fill="#fff"/><circle id="eXEpIjhoPNA34" r="9.3" transform="translate(1815.3 575.6)" fill="#fff"/><circle id="eXEpIjhoPNA35" r="5.7" transform="translate(1671.4 663.1)" fill="#fff"/><circle id="eXEpIjhoPNA36" r="8.8" transform="translate(1896.6 743.5)" fill="#fff"/><circle id="eXEpIjhoPNA37" r="8.2" transform="translate(1848.8 821.8)" fill="#fff"/><circle id="eXEpIjhoPNA38" r="8.2" transform="translate(1524.3 751.2)" fill="#fff"/><circle id="eXEpIjhoPNA39" r="5.1" transform="translate(1477 733.2)" fill="#fff"/><circle id="eXEpIjhoPNA40" r="5.4" transform="translate(1228.1 743.5)" fill="#fff"/><circle id="eXEpIjhoPNA41" r="5.4" transform="translate(1192.8 608.2)" fill="#fff"/><circle id="eXEpIjhoPNA42" r="6.1" transform="translate(1021.4 581.8)" fill="#fff"/><circle id="eXEpIjhoPNA43" r="11.3" transform="translate(896.9 659.4)" fill="#fff"/><circle id="eXEpIjhoPNA44" r="5.6" transform="translate(980.3 710.5)" fill="#fff"/><circle id="eXEpIjhoPNA45" r="9.8" transform="translate(1006 771.4)" fill="#fff"/><circle id="eXEpIjhoPNA46" r="5.4" transform="translate(790.2 516)" fill="#fff"/><circle id="eXEpIjhoPNA47" r="6.8" transform="translate(655.7 775.8)" fill="#fff"/><circle id="eXEpIjhoPNA48" r="5.4" transform="translate(932 385.7)" fill="#fff"/><circle id="eXEpIjhoPNA49" r="5.8" transform="translate(1072.3 447.9)" fill="#fff"/><circle id="eXEpIjhoPNA50" r="5.8" transform="translate(1127.5 309.1)" fill="#fff"/><circle id="eXEpIjhoPNA51" r="8.9" transform="translate(63 1415.2)" fill="#fff"/><circle id="eXEpIjhoPNA52" r="7.3" transform="translate(280.4 1351)" fill="#fff"/><circle id="eXEpIjhoPNA53" r="5.2" transform="translate(443.3 1548.7)" fill="#fff"/><circle id="eXEpIjhoPNA54" r="8.4" transform="translate(105.5 1140.3)" fill="#fff"/><circle id="eXEpIjhoPNA55" r="7.9" transform="translate(158.2 934.2)" fill="#fff"/><circle id="eXEpIjhoPNA56" r="7.7" transform="translate(451.8 1056.4)" fill="#fff"/><circle id="eXEpIjhoPNA57" r="6.7" transform="translate(534.5 993.7)" fill="#fff"/><circle id="eXEpIjhoPNA58" r="8" transform="translate(519 885.3)" fill="#fff"/><circle id="eXEpIjhoPNA59" r="7.5" transform="translate(616.9 1073.2)" fill="#fff"/><circle id="eXEpIjhoPNA60" r="6.4" transform="translate(544.8 1223.1)" fill="#fff"/><circle id="eXEpIjhoPNA61" r="6.3" transform="translate(511.7 1302.1)" fill="#fff"/><circle id="eXEpIjhoPNA62" r="6.8" transform="translate(678.9 884.6)" fill="#fff"/><circle id="eXEpIjhoPNA63" r="9.1" transform="translate(842.9 926.2)" fill="#fff"/><circle id="eXEpIjhoPNA64" r="5.5" transform="translate(927.5 885.4)" fill="#fff"/><circle id="eXEpIjhoPNA65" r="5.2" transform="translate(936.4 1095.1)" fill="#fff"/><circle id="eXEpIjhoPNA66" r="5" transform="translate(1012.2 944.3)" fill="#fff"/><circle id="eXEpIjhoPNA67" r="7.8" transform="translate(1184.8 989.9)" fill="#fff"/><circle id="eXEpIjhoPNA68" r="6" transform="translate(1191.6 1328.6)" fill="#fff"/><circle id="eXEpIjhoPNA69" r="6.7" transform="translate(1367.2 883)" fill="#fff"/><circle id="eXEpIjhoPNA70" r="5.7" transform="translate(1360.9 1459.2)" fill="#fff"/><circle id="eXEpIjhoPNA71" r="7.2" transform="translate(1519.7 1415.1)" fill="#fff"/><circle id="eXEpIjhoPNA72" r="6.8" transform="translate(1642 873.1)" fill="#fff"/><circle id="eXEpIjhoPNA73" r="7.6" transform="translate(1655.6 979.1)" fill="#fff"/><circle id="eXEpIjhoPNA74" r="6.3" transform="translate(1684.9 941.8)" fill="#fff"/><circle id="eXEpIjhoPNA75" r="9.5" transform="translate(1704.3 986.5)" fill="#fff"/><circle id="eXEpIjhoPNA76" r="5.5" transform="translate(1804.2 880.9)" fill="#fff"/><circle id="eXEpIjhoPNA77" r="7.2" transform="translate(1845.6 966.6)" fill="#fff"/><circle id="eXEpIjhoPNA78" r="5.9" transform="translate(1749.7 1078.9)" fill="#fff"/><circle id="eXEpIjhoPNA79" r="6.3" transform="translate(1730.2 1196.3)" fill="#fff"/><circle id="eXEpIjhoPNA80" r="7.4" transform="translate(1854.1 1241.6)" fill="#fff"/><circle id="eXEpIjhoPNA81" r="7.8" transform="translate(1828.6 1270.6)" fill="#fff"/><circle id="eXEpIjhoPNA82" r="6.5" transform="translate(1672.9 1374.9)" fill="#fff"/><circle id="eXEpIjhoPNA83" r="9.3" transform="translate(1815.3 1420)" fill="#fff"/><circle id="eXEpIjhoPNA84" r="5.7" transform="translate(1671.4 1507.5)" fill="#fff"/><circle id="eXEpIjhoPNA85" r="8.8" transform="translate(1896.6 1587.9)" fill="#fff"/><circle id="eXEpIjhoPNA86" r="8.2" transform="translate(1848.8 1666.3)" fill="#fff"/><circle id="eXEpIjhoPNA87" r="8.2" transform="translate(1524.3 1595.7)" fill="#fff"/><circle id="eXEpIjhoPNA88" r="5.1" transform="translate(1477 1577.6)" fill="#fff"/><circle id="eXEpIjhoPNA89" r="5.4" transform="translate(1228.1 1588)" fill="#fff"/><circle id="eXEpIjhoPNA90" r="5.4" transform="translate(1192.8 1452.6)" fill="#fff"/><circle id="eXEpIjhoPNA91" r="6.1" transform="translate(1021.4 1426.3)" fill="#fff"/><circle id="eXEpIjhoPNA92" r="11.3" transform="translate(896.9 1503.8)" fill="#fff"/><circle id="eXEpIjhoPNA93" r="5.6" transform="translate(980.3 1555)" fill="#fff"/><circle id="eXEpIjhoPNA94" r="9.8" transform="translate(1006 1615.9)" fill="#fff"/><circle id="eXEpIjhoPNA95" r="5.4" transform="translate(790.2 1360.5)" fill="#fff"/><circle id="eXEpIjhoPNA96" r="6.8" transform="translate(655.7 1620.3)" fill="#fff"/><circle id="eXEpIjhoPNA97" r="5.4" transform="translate(932 1230.2)" fill="#fff"/><circle id="eXEpIjhoPNA98" r="5.8" transform="translate(1072.3 1292.3)" fill="#fff"/><circle id="eXEpIjhoPNA99" r="5.8" transform="translate(1127.5 1153.5)" fill="#fff"/>

</svg>
