<svg id="eD1VEZ8slBW1" xmlns="http://www.w3.org/2000/svg" xmlns:xlink="http://www.w3.org/1999/xlink" viewBox="0 0 1920 1750" shape-rendering="geometricPrecision" text-rendering="geometricPrecision"><circle id="eD1VEZ8slBW2" r="8.9" transform="translate(63 570.7)" fill="#fff"/><circle id="eD1VEZ8slBW3" r="7.3" transform="translate(280.4 506.6)" fill="#fff"/><circle id="eD1VEZ8slBW4" r="5.2" transform="translate(443.3 704.3)" fill="#fff"/><circle id="eD1VEZ8slBW5" r="8.4" transform="translate(105.5 295.8)" fill="#fff"/><circle id="eD1VEZ8slBW6" r="7.9" transform="translate(158.2 89.7)" fill="#fff"/><circle id="eD1VEZ8slBW7" r="7.7" transform="translate(451.8 211.9)" fill="#fff"/><circle id="eD1VEZ8slBW8" r="6.7" transform="translate(534.5 149.2)" fill="#fff"/><circle id="eD1VEZ8slBW9" r="8" transform="translate(519 40.9)" fill="#fff"/><circle id="eD1VEZ8slBW10" r="7.5" transform="translate(616.9 228.8)" fill="#fff"/><circle id="eD1VEZ8slBW11" r="6.4" transform="translate(544.8 378.6)" fill="#fff"/><circle id="eD1VEZ8slBW12" r="6.3" transform="translate(511.7 457.6)" fill="#fff"/><circle id="eD1VEZ8slBW13" r="6.8" transform="translate(678.9 40.2)" fill="#fff"/><circle id="eD1VEZ8slBW14" r="9.1" transform="translate(842.9 81.7)" fill="#fff"/><circle id="eD1VEZ8slBW15" r="5.5" transform="translate(927.5 40.9)" fill="#fff"/><circle id="eD1VEZ8slBW16" r="5.2" transform="translate(936.4 250.7)" fill="#fff"/><circle id="eD1VEZ8slBW17" r="5" transform="translate(1012.2 99.9)" fill="#fff"/><circle id="eD1VEZ8slBW18" r="7.8" transform="translate(1184.8 145.4)" fill="#fff"/><circle id="eD1VEZ8slBW19" r="6" transform="translate(1191.6 484.1)" fill="#fff"/><circle id="eD1VEZ8slBW20" r="6.7" transform="translate(1367.2 38.5)" fill="#fff"/><circle id="eD1VEZ8slBW21" r="5.7" transform="translate(1360.9 614.7)" fill="#fff"/><circle id="eD1VEZ8slBW22" r="7.2" transform="translate(1519.7 570.6)" fill="#fff"/><circle id="eD1VEZ8slBW23" r="6.8" transform="translate(1642 28.6)" fill="#fff"/><circle id="eD1VEZ8slBW24" r="7.6" transform="translate(1655.6 134.7)" fill="#fff"/><circle id="eD1VEZ8slBW25" r="6.3" transform="translate(1684.9 97.3)" fill="#fff"/><circle id="eD1VEZ8slBW26" r="9.5" transform="translate(1704.3 142)" fill="#fff"/><circle id="eD1VEZ8slBW27" r="5.5" transform="translate(1804.2 36.5)" fill="#fff"/><circle id="eD1VEZ8slBW28" r="7.2" transform="translate(1845.6 122.1)" fill="#fff"/><circle id="eD1VEZ8slBW29" r="5.9" transform="translate(1749.7 234.4)" fill="#fff"/><circle id="eD1VEZ8slBW30" r="6.3" transform="translate(1730.2 351.8)" fill="#fff"/><circle id="eD1VEZ8slBW31" r="7.4" transform="translate(1854.1 397.2)" fill="#fff"/><circle id="eD1VEZ8slBW32" r="7.8" transform="translate(1828.6 426.1)" fill="#fff"/><circle id="eD1VEZ8slBW33" r="6.5" transform="translate(1672.9 530.4)" fill="#fff"/><circle id="eD1VEZ8slBW34" r="9.3" transform="translate(1815.3 575.6)" fill="#fff"/><circle id="eD1VEZ8slBW35" r="5.7" transform="translate(1671.4 663.1)" fill="#fff"/><circle id="eD1VEZ8slBW36" r="8.8" transform="translate(1896.6 743.5)" fill="#fff"/><circle id="eD1VEZ8slBW37" r="8.2" transform="translate(1848.8 821.8)" fill="#fff"/><circle id="eD1VEZ8slBW38" r="8.2" transform="translate(1524.3 751.2)" fill="#fff"/><circle id="eD1VEZ8slBW39" r="5.1" transform="translate(1477 733.2)" fill="#fff"/><circle id="eD1VEZ8slBW40" r="5.4" transform="translate(1228.1 743.5)" fill="#fff"/><circle id="eD1VEZ8slBW41" r="5.4" transform="translate(1192.8 608.2)" fill="#fff"/><circle id="eD1VEZ8slBW42" r="6.1" transform="translate(1021.4 581.8)" fill="#fff"/><circle id="eD1VEZ8slBW43" r="11.3" transform="translate(896.9 659.4)" fill="#fff"/><circle id="eD1VEZ8slBW44" r="5.6" transform="translate(980.3 710.5)" fill="#fff"/><circle id="eD1VEZ8slBW45" r="9.8" transform="translate(1006 771.4)" fill="#fff"/><circle id="eD1VEZ8slBW46" r="5.4" transform="translate(790.2 516)" fill="#fff"/><circle id="eD1VEZ8slBW47" r="6.8" transform="translate(655.7 775.8)" fill="#fff"/><circle id="eD1VEZ8slBW48" r="5.4" transform="translate(932 385.7)" fill="#fff"/><circle id="eD1VEZ8slBW49" r="5.8" transform="translate(1072.3 447.9)" fill="#fff"/><circle id="eD1VEZ8slBW50" r="5.8" transform="translate(1127.5 309.1)" fill="#fff"/><circle id="eD1VEZ8slBW51" r="8.9" transform="translate(63 1415.2)" fill="#fff"/><circle id="eD1VEZ8slBW52" r="7.3" transform="translate(280.4 1351)" fill="#fff"/><circle id="eD1VEZ8slBW53" r="5.2" transform="translate(443.3 1548.7)" fill="#fff"/><circle id="eD1VEZ8slBW54" r="8.4" transform="translate(105.5 1140.3)" fill="#fff"/><circle id="eD1VEZ8slBW55" r="7.9" transform="translate(158.2 934.2)" fill="#fff"/><circle id="eD1VEZ8slBW56" r="7.7" transform="translate(451.8 1056.4)" fill="#fff"/><circle id="eD1VEZ8slBW57" r="6.7" transform="translate(534.5 993.7)" fill="#fff"/><circle id="eD1VEZ8slBW58" r="8" transform="translate(519 885.3)" fill="#fff"/><circle id="eD1VEZ8slBW59" r="7.5" transform="translate(616.9 1073.2)" fill="#fff"/><circle id="eD1VEZ8slBW60" r="6.4" transform="translate(544.8 1223.1)" fill="#fff"/><circle id="eD1VEZ8slBW61" r="6.3" transform="translate(511.7 1302.1)" fill="#fff"/><circle id="eD1VEZ8slBW62" r="6.8" transform="translate(678.9 884.6)" fill="#fff"/><circle id="eD1VEZ8slBW63" r="9.1" transform="translate(842.9 926.2)" fill="#fff"/><circle id="eD1VEZ8slBW64" r="5.5" transform="translate(927.5 885.4)" fill="#fff"/><circle id="eD1VEZ8slBW65" r="5.2" transform="translate(936.4 1095.1)" fill="#fff"/><circle id="eD1VEZ8slBW66" r="5" transform="translate(1012.2 944.3)" fill="#fff"/><circle id="eD1VEZ8slBW67" r="7.8" transform="translate(1184.8 989.9)" fill="#fff"/><circle id="eD1VEZ8slBW68" r="6" transform="translate(1191.6 1328.6)" fill="#fff"/><circle id="eD1VEZ8slBW69" r="6.7" transform="translate(1367.2 883)" fill="#fff"/><circle id="eD1VEZ8slBW70" r="5.7" transform="translate(1360.9 1459.2)" fill="#fff"/><circle id="eD1VEZ8slBW71" r="7.2" transform="translate(1519.7 1415.1)" fill="#fff"/><circle id="eD1VEZ8slBW72" r="6.8" transform="translate(1642 873.1)" fill="#fff"/><circle id="eD1VEZ8slBW73" r="7.6" transform="translate(1655.6 979.1)" fill="#fff"/><circle id="eD1VEZ8slBW74" r="6.3" transform="translate(1684.9 941.8)" fill="#fff"/><circle id="eD1VEZ8slBW75" r="9.5" transform="translate(1704.3 986.5)" fill="#fff"/><circle id="eD1VEZ8slBW76" r="5.5" transform="translate(1804.2 880.9)" fill="#fff"/><circle id="eD1VEZ8slBW77" r="7.2" transform="translate(1845.6 966.6)" fill="#fff"/><circle id="eD1VEZ8slBW78" r="5.9" transform="translate(1749.7 1078.9)" fill="#fff"/><circle id="eD1VEZ8slBW79" r="6.3" transform="translate(1730.2 1196.3)" fill="#fff"/><circle id="eD1VEZ8slBW80" r="7.4" transform="translate(1854.1 1241.6)" fill="#fff"/><circle id="eD1VEZ8slBW81" r="7.8" transform="translate(1828.6 1270.6)" fill="#fff"/><circle id="eD1VEZ8slBW82" r="6.5" transform="translate(1672.9 1374.9)" fill="#fff"/><circle id="eD1VEZ8slBW83" r="9.3" transform="translate(1815.3 1420)" fill="#fff"/><circle id="eD1VEZ8slBW84" r="5.7" transform="translate(1671.4 1507.5)" fill="#fff"/><circle id="eD1VEZ8slBW85" r="8.8" transform="translate(1896.6 1587.9)" fill="#fff"/><circle id="eD1VEZ8slBW86" r="8.2" transform="translate(1848.8 1666.3)" fill="#fff"/><circle id="eD1VEZ8slBW87" r="8.2" transform="translate(1524.3 1595.7)" fill="#fff"/><circle id="eD1VEZ8slBW88" r="5.1" transform="translate(1477 1577.6)" fill="#fff"/><circle id="eD1VEZ8slBW89" r="5.4" transform="translate(1228.1 1588)" fill="#fff"/><circle id="eD1VEZ8slBW90" r="5.4" transform="translate(1192.8 1452.6)" fill="#fff"/><circle id="eD1VEZ8slBW91" r="6.1" transform="translate(1021.4 1426.3)" fill="#fff"/><circle id="eD1VEZ8slBW92" r="11.3" transform="translate(896.9 1503.8)" fill="#fff"/><circle id="eD1VEZ8slBW93" r="5.6" transform="translate(980.3 1555)" fill="#fff"/><circle id="eD1VEZ8slBW94" r="9.8" transform="translate(1006 1615.9)" fill="#fff"/><circle id="eD1VEZ8slBW95" r="5.4" transform="translate(790.2 1360.5)" fill="#fff"/><circle id="eD1VEZ8slBW96" r="6.8" transform="translate(655.7 1620.3)" fill="#fff"/><circle id="eD1VEZ8slBW97" r="5.4" transform="translate(932 1230.2)" fill="#fff"/><circle id="eD1VEZ8slBW98" r="5.8" transform="translate(1072.3 1292.3)" fill="#fff"/><circle id="eD1VEZ8slBW99" r="5.8" transform="translate(1127.5 1153.5)" fill="#fff"/>

</svg>
